<svg width="143" height="27" viewBox="0 0 143 27" fill="none" xmlns="http://www.w3.org/2000/svg">
<path d="M0 16.6951L0.476203 13.8659C0.504215 13.7258 0.644275 13.6698 0.756322 13.7539C2.40903 14.7623 3.92167 15.3505 5.46233 15.3505C7.03099 15.3505 8.06744 14.5102 8.06744 13.1376C8.06744 12.1012 7.5072 11.4009 5.35028 10.7006L4.64998 10.4765C1.93282 9.58008 0.392167 7.73129 0.392167 5.21022C0.364155 2.21294 2.68915 0 6.16262 0C7.73129 0 9.46803 0.476203 11.0367 1.23252C11.1207 1.26054 11.1487 1.34457 11.1487 1.42861L10.6165 4.28583C10.5885 4.39787 10.4485 4.48191 10.3364 4.39787C8.82376 3.58553 7.2831 3.13734 6.21865 3.13734C4.76203 3.13734 4.00571 3.97769 4.00571 5.04215C4.00571 5.93853 4.48191 6.61082 6.35871 7.2831L7.14304 7.56322C10.1683 8.54364 11.793 10.3924 11.793 13.0816C11.793 16.3029 9.35598 18.5719 5.65841 18.5719C3.72559 18.5719 1.73674 17.8996 0.0560241 16.8912C0.0280121 16.8632 0 16.7791 0 16.6951Z" fill="#02218E"/>
<path d="M29.8597 0.362953V18.4307C29.8597 18.5427 29.7757 18.5987 29.6916 18.5987H26.2461C26.1341 18.5987 26.0781 18.5147 26.0781 18.4307V16.5819C26.0781 16.4138 25.882 16.3298 25.7699 16.4698C24.4814 17.7864 22.7166 18.5427 20.6718 18.5427C16.61 18.5427 13.9209 15.7975 13.9209 11.2036V0.895181C13.9209 0.811145 13.9769 0.727109 14.089 0.727109L17.6465 0.194882C17.7585 0.16687 17.8426 0.250906 17.8426 0.362953V10.6994C17.8426 13.4445 19.4112 14.9572 21.6522 14.9572C24.0892 14.9572 25.826 13.1924 25.826 10.4192V0.895181C25.826 0.811145 25.882 0.727109 25.994 0.727109L29.6076 0.194882C29.7476 0.16687 29.8597 0.250906 29.8597 0.362953Z" fill="#02218E"/>
<path d="M69.8048 12.4666L70.9533 15.2958C70.9813 15.3798 70.9533 15.4639 70.8973 15.4919C68.7404 17.3967 66.0232 18.5172 63.11 18.5172C57.5916 18.5172 53.5859 14.5115 53.5859 9.30125C53.5859 4.09103 57.6477 0.0292969 62.9699 0.0292969C67.3678 0.0292969 70.8973 2.88651 71.5136 7.67655C71.5136 7.76059 71.4575 7.84463 71.4015 7.87264L58.1239 12.1585C58.0118 12.1865 57.9558 12.3265 58.0118 12.4106C58.9922 14.1193 60.785 15.2398 63.194 15.2398C65.407 15.2398 67.5359 14.3434 69.5527 12.3545C69.6088 12.3265 69.7488 12.3545 69.8048 12.4666ZM57.4516 9.04914L67.1157 5.88379C67.2277 5.85578 67.2838 5.71572 67.2277 5.63168C66.4434 4.11904 64.8467 3.22266 62.9419 3.22266C59.8326 3.22266 57.4516 5.6597 57.1995 8.85306C57.1995 8.99311 57.3395 9.10516 57.4516 9.04914Z" fill="#02218E"/>
<path d="M83.6991 0.337994V3.81147C83.6991 3.92352 83.6151 4.00756 83.503 4.00756C79.8335 4.06358 77.8726 5.88436 77.8726 9.66597V18.3777C77.8726 18.4897 77.7886 18.5738 77.6766 18.5738H73.951C73.8389 18.5738 73.7549 18.4897 73.7549 18.3777V0.926244C73.7549 0.842208 73.8109 0.758172 73.923 0.730161L77.3964 0.225945C77.5085 0.197933 77.6205 0.309981 77.6205 0.422029V2.57895C77.6205 2.74702 77.8446 2.83106 77.9567 2.691C79.1332 1.09432 80.954 0.225946 83.503 0.169922C83.6151 0.169922 83.6991 0.253958 83.6991 0.337994Z" fill="#02218E"/>
<path d="M105.101 6.07852L108.714 5.26617C108.826 5.23816 108.938 5.3222 108.938 5.43424V18.2917C108.938 18.4038 108.854 18.4878 108.77 18.4878H105.157C105.045 18.4878 104.989 18.4038 104.989 18.2917V6.24659C104.961 6.16255 105.017 6.07852 105.101 6.07852Z" fill="#02218E"/>
<path d="M131.207 16.6106L131.683 13.8094C131.711 13.6974 131.851 13.6133 131.963 13.6974C133.588 14.7058 135.073 15.266 136.613 15.266C138.182 15.266 139.19 14.4537 139.19 13.0811C139.19 12.0727 138.658 11.3724 136.501 10.6721L135.801 10.448C133.112 9.55159 131.599 7.73082 131.599 5.20974C131.599 2.2965 133.896 0.111572 137.341 0.111572C138.91 0.111572 140.591 0.587775 142.16 1.3441C142.244 1.37211 142.272 1.45615 142.272 1.54018L141.767 4.34137C141.739 4.45342 141.599 4.53746 141.515 4.45342C140.031 3.64108 138.49 3.2209 137.454 3.2209C136.025 3.2209 135.269 4.03324 135.269 5.0977C135.269 5.99408 135.745 6.66636 137.622 7.31064L138.406 7.59076C141.403 8.57117 143 10.3919 143 13.0531C143 16.2464 140.591 18.4594 136.921 18.4594C135.016 18.4594 133.028 17.7871 131.375 16.8067C131.207 16.7507 131.179 16.6946 131.207 16.6106Z" fill="#02218E"/>
<path d="M109.08 2.29883C109.08 3.47533 108.128 4.42773 106.951 4.42773C105.775 4.42773 104.822 3.47533 104.822 2.29883C104.822 1.12233 105.775 0.169922 106.951 0.169922C108.128 0.169922 109.08 1.12233 109.08 2.29883Z" fill="#02218E"/>
<path d="M42.4663 0.0292969C40.0573 0.0292969 38.0124 1.00971 36.5558 2.63441C36.4438 2.74645 36.2477 2.69043 36.2477 2.52236V0.36544C36.2477 0.253392 36.1356 0.169357 36.0516 0.197369L32.7462 0.701583C32.6622 0.701583 32.5781 0.785619 32.5781 0.869655V26.5286C32.5781 26.6406 32.6622 26.6967 32.7462 26.6967H36.3597C36.4718 26.6967 36.5278 26.6126 36.5278 26.5286V16.3603C36.5278 16.1922 36.7239 16.1081 36.8359 16.2202C38.2645 17.6488 40.1974 18.4892 42.4383 18.4892C47.2844 18.4892 51.3461 14.4274 51.3461 9.21721C51.3741 4.09103 47.3124 0.0292969 42.4663 0.0292969ZM42.2142 15.0717C41.9061 15.0717 41.626 15.0437 41.3178 14.9877C38.4606 14.7356 36.2477 12.2985 36.2477 9.27323C36.2477 6.89222 37.6203 4.90337 39.5811 4.035C40.3654 3.61482 41.2618 3.36272 42.1862 3.36272C45.3236 3.36272 47.8726 5.99584 47.8726 9.21721C47.9006 12.4386 45.3516 15.0717 42.2142 15.0717Z" fill="#02218E"/>
<path d="M95.2693 15.0424C99.0509 14.3701 101.908 11.2888 101.908 7.59123C101.908 5.85449 101.264 4.25781 100.199 2.96926H102.132C102.244 2.96926 102.328 2.88523 102.328 2.77318V0.224095C102.328 0.112048 102.244 0.028012 102.132 0.028012H94.4849C94.2328 1.0644e-07 93.9807 0 93.7566 0C89.2467 0 85.5771 3.38944 85.5771 7.59123C85.5771 11.3448 88.5184 14.4542 92.356 15.0704L95.2693 15.0424ZM89.4148 7.61925C89.4148 5.29426 91.3476 3.41746 93.7286 3.41746C96.1096 3.41746 98.0425 5.29426 98.0425 7.61925C98.0425 9.94424 96.1096 11.821 93.7286 11.821C91.3476 11.821 89.4148 9.94424 89.4148 7.61925Z" fill="#02218E"/>
<path d="M121.6 15.0424C125.382 14.3701 128.239 11.2888 128.239 7.59123C128.239 5.85449 127.595 4.25781 126.53 2.96926H128.463C128.575 2.96926 128.659 2.88523 128.659 2.77318V0.224095C128.659 0.112048 128.575 0.028012 128.463 0.028012H120.816C120.564 1.0644e-07 120.312 0 120.088 0C115.578 0 111.908 3.38944 111.908 7.59123C111.908 11.3448 114.849 14.4542 118.687 15.0704L121.6 15.0424ZM115.746 7.61925C115.746 5.29426 117.679 3.41746 120.06 3.41746C122.441 3.41746 124.374 5.29426 124.374 7.61925C124.374 9.94424 122.441 11.821 120.06 11.821C117.679 11.821 115.746 9.94424 115.746 7.61925Z" fill="#02218E"/>
<path d="M120.06 14.9558C117.203 14.9558 114.822 16.7486 114.066 19.1856C114.038 19.2977 114.122 19.4377 114.262 19.4377H117.707C118.212 18.7094 119.08 18.2052 120.06 18.2052C121.601 18.2052 122.862 19.3817 122.862 20.8383C122.862 22.2949 121.601 23.4714 120.06 23.4714C119.052 23.4714 118.184 22.9672 117.707 22.2389H114.262C114.122 22.2389 114.038 22.379 114.066 22.491C114.822 24.9281 117.203 26.7208 120.06 26.7208C123.534 26.7208 126.335 24.0877 126.335 20.8383C126.335 17.5889 123.534 14.9558 120.06 14.9558Z" fill="#02218E"/>
<path d="M93.7857 14.9558C90.9285 14.9558 88.5475 16.7486 87.7912 19.1856C87.7632 19.2977 87.8472 19.4377 87.9873 19.4377H91.4327C91.937 18.7094 92.8053 18.2052 93.7857 18.2052C95.3264 18.2052 96.5869 19.3817 96.5869 20.8383C96.5869 22.2949 95.3264 23.4714 93.7857 23.4714C92.7773 23.4714 91.9089 22.9672 91.4327 22.2389H87.9593C87.8192 22.2389 87.7352 22.379 87.7632 22.491C88.5195 24.9281 90.9005 26.7208 93.7577 26.7208C97.2312 26.7208 100.032 24.0877 100.032 20.8383C100.06 17.5889 97.2312 14.9558 93.7857 14.9558Z" fill="#02218E"/>
</svg>
