<svg width="190" height="38" viewBox="0 0 190 38" fill="none" xmlns="http://www.w3.org/2000/svg">
<path d="M0 23.2094L0.63272 19.2762C0.669939 19.0815 0.856032 19.0036 1.00491 19.1205C3.20082 20.5224 5.21063 21.3402 7.25766 21.3402C9.34192 21.3402 10.719 20.1719 10.719 18.2637C10.719 16.8229 9.97464 15.8493 7.10879 14.8758L6.17832 14.5643C2.5681 13.3181 0.521063 10.748 0.521063 7.24319C0.483844 3.07641 3.573 0 8.18813 0C10.2724 0 12.58 0.662012 14.6642 1.71344C14.7759 1.75238 14.8131 1.86921 14.8131 1.98604L14.1059 5.95811C14.0687 6.11388 13.8826 6.2307 13.7337 6.11388C11.7239 4.98456 9.67689 4.36149 8.26257 4.36149C6.32719 4.36149 5.32229 5.52975 5.32229 7.00954C5.32229 8.25568 5.95501 9.19028 8.44867 10.1249L9.49079 10.5143C13.5104 11.8773 15.6691 14.4474 15.6691 18.1859C15.6691 22.6642 12.4311 25.8185 7.5182 25.8185C4.9501 25.8185 2.30757 24.8839 0.0744379 23.482C0.0372191 23.443 0 23.3262 0 23.2094Z" fill="white"/>
<path d="M39.6775 0.506823V25.6243C39.6775 25.7801 39.5658 25.858 39.4542 25.858H34.8763C34.7274 25.858 34.653 25.7412 34.653 25.6243V23.0542C34.653 22.8205 34.3924 22.7037 34.2436 22.8984C32.5315 24.7287 30.1867 25.7801 27.4697 25.7801C22.073 25.7801 18.5 21.9638 18.5 15.5773V1.24672C18.5 1.12989 18.5744 1.01307 18.7233 1.01307L23.4501 0.273173C23.599 0.234231 23.7106 0.351056 23.7106 0.506823V14.8764C23.7106 18.6927 25.7949 20.7955 28.7724 20.7955C32.0104 20.7955 34.318 18.3422 34.318 14.487V1.24672C34.318 1.12989 34.3924 1.01307 34.5413 1.01307L39.3425 0.273173C39.5286 0.234231 39.6775 0.351056 39.6775 0.506823Z" fill="white"/>
<path d="M92.7489 17.3271L94.2749 21.2602C94.3121 21.377 94.2749 21.4938 94.2004 21.5328C91.3346 24.1808 87.7244 25.7385 83.8536 25.7385C76.5215 25.7385 71.1992 20.1698 71.1992 12.9266C71.1992 5.68344 76.5959 0.0368652 83.6675 0.0368652C89.5109 0.0368652 94.2004 4.00894 95.0192 10.668C95.0192 10.7848 94.9448 10.9016 94.8704 10.9406L77.2287 16.8987C77.0798 16.9376 77.0054 17.1324 77.0798 17.2492C78.3824 19.6246 80.7644 21.1823 83.9653 21.1823C86.9055 21.1823 89.7342 19.9362 92.4139 17.1713C92.4884 17.1324 92.6745 17.1713 92.7489 17.3271ZM76.3354 12.5761L89.1759 8.17572C89.3248 8.13678 89.3992 7.94207 89.3248 7.82524C88.2826 5.72238 86.1612 4.47624 83.6303 4.47624C79.499 4.47624 76.3354 7.86418 76.0004 12.3036C76.0004 12.4983 76.1865 12.654 76.3354 12.5761Z" fill="white"/>
<path d="M111.213 0.466562V5.29535C111.213 5.45112 111.101 5.56795 110.952 5.56795C106.076 5.64583 103.471 8.17705 103.471 13.4342V25.5451C103.471 25.7009 103.36 25.8177 103.211 25.8177H98.2605C98.1117 25.8177 98 25.7009 98 25.5451V1.28434C98 1.16751 98.0744 1.05069 98.2233 1.01175L102.838 0.310793C102.987 0.271852 103.136 0.427619 103.136 0.583387V3.58191C103.136 3.81556 103.434 3.93239 103.583 3.73768C105.146 1.51799 107.565 0.310794 110.952 0.23291C111.101 0.23291 111.213 0.349736 111.213 0.466562Z" fill="white"/>
<path d="M139.647 8.44863L144.448 7.31932C144.597 7.28037 144.746 7.3972 144.746 7.55297V25.4273C144.746 25.5831 144.634 25.6999 144.522 25.6999H139.721C139.572 25.6999 139.498 25.5831 139.498 25.4273V8.68228C139.461 8.56546 139.535 8.44863 139.647 8.44863Z" fill="white"/>
<path d="M174.333 23.092L174.966 19.1979C175.003 19.0421 175.189 18.9253 175.338 19.0421C177.496 20.444 179.469 21.2228 181.516 21.2228C183.6 21.2228 184.94 20.0935 184.94 18.1854C184.94 16.7835 184.233 15.8099 181.367 14.8364L180.437 14.5248C176.864 13.2787 174.854 10.7475 174.854 7.2427C174.854 3.19274 177.906 0.155273 182.484 0.155273C184.568 0.155273 186.801 0.817285 188.885 1.86872C188.997 1.90766 189.034 2.02448 189.034 2.14131L188.364 6.0355C188.327 6.19127 188.141 6.30809 188.029 6.19127C186.057 5.06195 184.01 4.47782 182.633 4.47782C180.735 4.47782 179.73 5.60714 179.73 7.08693C179.73 8.33307 180.362 9.26767 182.856 10.1633L183.898 10.5528C187.881 11.9157 190.002 14.4469 190.002 18.1464C190.002 22.5858 186.801 25.6622 181.926 25.6622C179.395 25.6622 176.752 24.7276 174.556 23.3646C174.333 23.2868 174.296 23.2089 174.333 23.092Z" fill="white"/>
<path d="M144.931 3.19249C144.931 4.82805 143.665 6.15208 142.102 6.15208C140.539 6.15208 139.273 4.82805 139.273 3.19249C139.273 1.55693 140.539 0.23291 142.102 0.23291C143.665 0.23291 144.931 1.55693 144.931 3.19249Z" fill="white"/>
<path d="M56.4273 0.0368652C53.2265 0.0368652 50.5095 1.39983 48.5741 3.65846C48.4253 3.81423 48.1647 3.73634 48.1647 3.50269V0.504167C48.1647 0.3484 48.0158 0.231575 47.9042 0.270517L43.5124 0.97147C43.4007 0.97147 43.2891 1.0883 43.2891 1.20512V36.8759C43.2891 37.0317 43.4007 37.1095 43.5124 37.1095H48.3136C48.4625 37.1095 48.5369 36.9927 48.5369 36.8759V22.74C48.5369 22.5063 48.7974 22.3895 48.9463 22.5453C50.8445 24.5313 53.4126 25.6996 56.3901 25.6996C62.8289 25.6996 68.2256 20.053 68.2256 12.8098C68.2629 5.68344 62.8661 0.0368652 56.4273 0.0368652ZM56.0923 20.9487C55.6829 20.9487 55.3107 20.9097 54.9013 20.8318C51.105 20.4814 48.1647 17.0934 48.1647 12.8877C48.1647 9.57763 49.9884 6.81275 52.5938 5.60555C53.6359 5.02143 54.8269 4.67095 56.0551 4.67095C60.2236 4.67095 63.6105 8.33149 63.6105 12.8098C63.6477 17.2881 60.2608 20.9487 56.0923 20.9487Z" fill="white"/>
<path d="M126.581 20.9118C131.605 19.9772 135.402 15.6936 135.402 10.5533C135.402 8.13885 134.546 5.91917 133.131 4.12784H135.699C135.848 4.12784 135.96 4.01101 135.96 3.85525V0.311535C135.96 0.155767 135.848 0.038942 135.699 0.038942H125.539C125.204 1.47971e-07 124.869 0 124.571 0C118.579 0 113.703 4.71197 113.703 10.5533C113.703 15.7715 117.611 20.094 122.71 20.9507M118.802 10.5922C118.802 7.36002 121.37 4.75091 124.534 4.75091C127.697 4.75091 130.265 7.36002 130.265 10.5922C130.265 13.8244 127.697 16.4335 124.534 16.4335C121.37 16.4335 118.802 13.8244 118.802 10.5922Z" fill="white"/>
<path d="M161.565 20.9118C166.589 19.9772 170.386 15.6936 170.386 10.5533C170.386 8.13885 169.53 5.91917 168.115 4.12784H170.684C170.832 4.12784 170.944 4.01101 170.944 3.85525V0.311535C170.944 0.155767 170.832 0.038942 170.684 0.038942H160.523C160.188 1.47971e-07 159.853 0 159.555 0C153.563 0 148.687 4.71197 148.687 10.5533C148.687 15.7715 152.595 20.094 157.694 20.9507M153.786 10.5922C153.786 7.36002 156.354 4.75091 159.518 4.75091C162.682 4.75091 165.25 7.36002 165.25 10.5922C165.25 13.8244 162.682 16.4335 159.518 16.4335C156.354 16.4335 153.786 13.8244 153.786 10.5922Z" fill="white"/>
<path d="M159.519 20.7952C155.723 20.7952 152.559 23.2874 151.554 26.6754C151.517 26.8312 151.628 27.0259 151.815 27.0259H156.392C157.062 26.0134 158.216 25.3124 159.519 25.3124C161.566 25.3124 163.241 26.948 163.241 28.973C163.241 30.9979 161.566 32.6335 159.519 32.6335C158.179 32.6335 157.025 31.9325 156.392 30.9201H151.815C151.628 30.9201 151.517 31.1148 151.554 31.2705C152.559 34.6585 155.723 37.1508 159.519 37.1508C164.134 37.1508 167.856 33.4902 167.856 28.973C167.856 24.4557 164.134 20.7952 159.519 20.7952Z" fill="white"/>
<path d="M124.607 20.7952C120.811 20.7952 117.647 23.2874 116.642 26.6754C116.605 26.8312 116.716 27.0259 116.903 27.0259H121.48C122.15 26.0134 123.304 25.3124 124.607 25.3124C126.654 25.3124 128.329 26.948 128.329 28.973C128.329 30.9979 126.654 32.6335 124.607 32.6335C123.267 32.6335 122.113 31.9325 121.48 30.9201H116.865C116.679 30.9201 116.568 31.1148 116.605 31.2705C117.61 34.6585 120.773 37.1508 124.57 37.1508C129.185 37.1508 132.907 33.4902 132.907 28.973C132.944 24.4557 129.185 20.7952 124.607 20.7952Z" fill="white"/>
</svg>
