<svg width="50" height="44" viewBox="0 0 50 44" fill="none" xmlns="http://www.w3.org/2000/svg">
<path d="M45.3125 0H32.8125C31.5694 0.000370251 30.3773 0.497156 29.4983 1.38115C28.6193 2.26514 28.1254 3.46398 28.125 4.71414V17.2852C28.1254 18.5353 28.6193 19.7342 29.4983 20.6181C30.3773 21.5021 31.5694 21.9989 32.8125 21.9993H40.625V28.2848C40.625 29.9518 39.9665 31.5506 38.7944 32.7293C37.6223 33.9081 36.0326 34.5703 34.375 34.5703H33.5944C33.2863 34.5694 32.981 34.6298 32.6962 34.7479C32.4113 34.8661 32.1525 35.0397 31.9346 35.2588C31.7167 35.478 31.5441 35.7382 31.4266 36.0247C31.3091 36.3112 31.2491 36.6182 31.25 36.9281V41.6422C31.2491 41.9521 31.3091 42.2591 31.4266 42.5456C31.5441 42.8321 31.7167 43.0924 31.9346 43.3115C32.1525 43.5306 32.4113 43.7042 32.6962 43.8224C32.981 43.9406 33.2863 44.0009 33.5944 44H34.3764C36.4284 44.0004 38.4605 43.5941 40.3564 42.8044C42.2522 42.0148 43.9749 40.8572 45.4257 39.3978C46.8766 37.9384 48.0274 36.2058 48.8123 34.299C49.5971 32.3922 50.0007 30.3485 50 28.2848V4.71414C49.9996 3.46398 49.5056 2.26514 48.6267 1.38115C47.7477 0.497156 46.5556 0.000370251 45.3125 0ZM17.1875 0H4.6875C3.44441 0.000370251 2.25234 0.497156 1.37334 1.38115C0.494347 2.26514 0.000368159 3.46398 0 4.71414L0 17.2852C0.000368159 18.5353 0.494347 19.7342 1.37334 20.6181C2.25234 21.5021 3.44441 21.9989 4.6875 21.9993H12.5V28.2848C12.5 29.9518 11.8415 31.5506 10.6694 32.7293C9.49731 33.9081 7.9076 34.5703 6.25 34.5703H5.46944C5.16131 34.5694 4.85604 34.6298 4.57118 34.7479C4.28633 34.8661 4.02751 35.0397 3.80963 35.2588C3.59174 35.478 3.41909 35.7382 3.30159 36.0247C3.1841 36.3112 3.12408 36.6182 3.125 36.9281V41.6422C3.12427 41.952 3.18442 42.2589 3.30199 42.5452C3.41957 42.8315 3.59225 43.0916 3.81012 43.3106C4.02799 43.5295 4.28674 43.7031 4.5715 43.8211C4.85627 43.9392 5.16143 43.9995 5.46944 43.9986H6.25C8.30206 43.9991 10.3341 43.5931 12.2301 42.8036C14.126 42.0141 15.8487 40.8566 17.2998 39.3974C18.7508 37.9381 19.9017 36.2056 20.6867 34.2989C21.4718 32.3921 21.8755 30.3485 21.875 28.2848V4.71414C21.8746 3.46398 21.3807 2.26514 20.5017 1.38115C19.6227 0.497156 18.4306 0.000370251 17.1875 0Z" fill="black" fill-opacity="0.1"/>
</svg>
