<svg width="43" height="43" viewBox="0 0 43 43" fill="none" xmlns="http://www.w3.org/2000/svg">
<path opacity="0.1" fill-rule="evenodd" clip-rule="evenodd" d="M0.493652 21.2906C0.493652 9.55273 10.009 0.0373535 21.7468 0.0373535C33.4847 0.0373535 43 9.55273 43 21.2906C43 33.0284 33.4847 42.5437 21.7468 42.5437C10.009 42.5437 0.493652 33.0284 0.493652 21.2906Z" fill="white"/>
<path fill-rule="evenodd" clip-rule="evenodd" d="M30.6037 13.9843C31.5792 14.2519 32.3474 15.0406 32.6081 16.0422C33.0818 17.8574 33.0818 21.6449 33.0818 21.6449C33.0818 21.6449 33.0818 25.4322 32.6081 27.2475C32.3474 28.2491 31.5792 29.0378 30.6037 29.3056C28.8359 29.7919 21.7468 29.7919 21.7468 29.7919C21.7468 29.7919 14.6576 29.7919 12.8897 29.3056C11.9143 29.0378 11.1461 28.2491 10.8854 27.2475C10.4117 25.4322 10.4117 21.6449 10.4117 21.6449C10.4117 21.6449 10.4117 17.8574 10.8854 16.0422C11.1461 15.0406 11.9143 14.2519 12.8897 13.9843C14.6576 13.4978 21.7468 13.4978 21.7468 13.4978C21.7468 13.4978 28.8359 13.4978 30.6037 13.9843ZM19.6215 18.4568V25.5412L25.289 21.9991L19.6215 18.4568Z" fill="white"/>
</svg>
