<svg width="12" height="12" viewBox="0 0 12 12" fill="none" xmlns="http://www.w3.org/2000/svg">
<path d="M6 12C4.39737 12 2.89059 11.3759 1.75735 10.2426C0.624115 9.10941 0 7.60263 0 6C0 4.39737 0.624115 2.89059 1.75735 1.75735C2.89059 0.624115 4.39737 0 6 0C7.60263 0 9.10941 0.624115 10.2426 1.75735C11.3759 2.89059 12 4.39737 12 6C12 7.60263 11.3759 9.10941 10.2426 10.2426C9.10941 11.3759 7.60263 12 6 12ZM6 0.9375C3.20856 0.9375 0.9375 3.20856 0.9375 6C0.9375 8.79144 3.20856 11.0625 6 11.0625C8.79144 11.0625 11.0625 8.79144 11.0625 6C11.0625 3.20856 8.79144 0.9375 6 0.9375ZM8.46936 8.46936L7.80643 7.80643C6.81033 8.80252 5.18967 8.80252 4.19357 7.80643C3.19748 6.81033 3.19748 5.18967 4.19357 4.19357C5.18967 3.19748 6.81033 3.19748 7.80643 4.19357L8.46936 3.53064C7.1077 2.16907 4.89221 2.16907 3.53064 3.53064C2.16907 4.8923 2.16907 7.10779 3.53064 8.46936C4.21143 9.15015 5.10571 9.49054 6 9.49054C6.8942 9.49054 7.78857 9.15015 8.46936 8.46936Z" fill="white"/>
</svg>
