<svg width="86" height="80" viewBox="0 0 86 80" fill="none" xmlns="http://www.w3.org/2000/svg">
<path fill-rule="evenodd" clip-rule="evenodd" d="M7.90235 32.0058C9.00922 25.0383 9.14309 17.8625 9.22154 10.9074C9.23342 9.40995 8.05306 8.15782 6.60176 8.21923C5.13718 8.17532 3.94246 9.38308 3.91835 10.7751C3.84806 17.5155 3.74325 24.473 2.67018 31.1159C2.43464 32.5324 3.41797 33.9151 4.86387 34.1749C6.30872 34.4348 7.66575 33.4224 7.90235 32.0058Z" fill="url(#paint0_linear_1_1516)"/>
<path fill-rule="evenodd" clip-rule="evenodd" d="M37.0602 49.3556C46.8581 37.2129 55.0737 23.8644 65.1927 11.8982C66.1431 10.8262 66.0043 9.13253 64.8921 8.19287C63.7789 7.25333 62.1004 7.3415 61.1623 8.51888C51.0107 20.4889 42.7635 33.841 32.933 45.9875C32.0202 47.162 32.201 48.8504 33.3416 49.7868C34.4688 50.6178 36.1473 50.5301 37.0602 49.3556Z" fill="url(#paint1_linear_1_1516)"/>
<path fill-rule="evenodd" clip-rule="evenodd" d="M81.9496 64.7752C75.6577 65.8253 69.3658 66.8748 63.0728 67.925C61.6232 68.0931 60.6507 69.4888 60.8923 70.9568C61.135 72.4247 62.4912 73.3355 63.9418 73.1673C70.2442 72.116 76.5457 71.0654 82.847 70.0142C84.2844 69.7407 85.2496 68.3462 84.9995 66.8791C84.7617 65.5175 83.3859 64.5018 81.9496 64.7752Z" fill="url(#paint2_linear_1_1516)"/>
<defs>
<linearGradient id="paint0_linear_1_1516" x1="10.3785" y1="20.7001" x2="1.48114" y2="21.7317" gradientUnits="userSpaceOnUse">
<stop stop-color="#F33A56"/>
<stop offset="1" stop-color="#6E039F"/>
</linearGradient>
<linearGradient id="paint1_linear_1_1516" x1="67.7635" y1="26.7804" x2="30.4117" y2="31.1112" gradientUnits="userSpaceOnUse">
<stop stop-color="#F33A56"/>
<stop offset="1" stop-color="#6E039F"/>
</linearGradient>
<linearGradient id="paint2_linear_1_1516" x1="85.0826" y1="67.5606" x2="60.8215" y2="70.3736" gradientUnits="userSpaceOnUse">
<stop stop-color="#F33A56"/>
<stop offset="1" stop-color="#6E039F"/>
</linearGradient>
</defs>
</svg>
