<svg width="410" height="82" viewBox="0 0 410 82" fill="none" xmlns="http://www.w3.org/2000/svg">
<path d="M302.203 70.3438C292.637 71.49 283.031 72.4534 273.355 73.123C269.499 73.3901 265.635 73.0551 261.777 72.9686C245.998 72.4756 230.283 71.4936 214.602 70.3366C197.948 69.1075 181.341 67.6428 164.773 65.9937C151.147 64.6386 137.626 62.9494 124.152 61.1054C112.205 59.4707 100.303 57.7054 88.5816 55.5057C72.0604 52.4042 55.8964 48.7063 40.6545 43.5529C33.9904 41.3001 27.6282 38.7154 22.0627 35.4853C17.4105 32.7859 13.6723 29.5995 12.3204 25.5506C11.3567 22.6632 12.7754 20.3338 16.4827 18.5304C21.1284 16.2704 26.461 14.8885 31.9174 13.6785C44.6712 10.8509 57.8701 9.30226 71.2603 8.34393C87.8874 7.15401 104.593 6.85239 121.303 6.61306C133.908 6.43241 146.51 6.18589 159.116 6.03355C169.181 5.91106 179.246 6.04538 189.308 6.20338C199.523 6.36345 209.732 6.63932 219.918 7.14885C231.027 7.70573 242.104 8.4659 253.129 9.52254C263.326 10.5004 273.541 11.4093 283.686 12.5884C294.458 13.8401 305.166 15.2848 315.828 16.8721C323.674 18.0409 331.487 19.3106 339.219 20.7507C351.143 22.97 362.977 25.3745 373.85 29.2655C380.199 31.5393 384.643 34.9717 385.978 39.593C387.426 44.556 384.586 48.73 378.799 52.0888C371.97 56.0523 363.913 58.7476 355.375 60.9293C338.202 65.3174 320.353 68.1682 302.203 70.3438ZM409.515 73.1441C408.807 72.9135 408.059 72.3165 407.31 72.7005C406.032 73.3536 404.624 73.2754 403.273 73.1735C398.463 72.8116 393.71 73.1755 388.94 73.4493C381.591 73.8719 374.233 74.3685 366.851 74.3855C354.577 74.4138 342.296 74.314 330.022 74.2718C327.768 74.2641 325.521 74.2708 323.275 74.2708C323.519 74.0325 323.78 73.9588 324.048 73.9161C328.224 73.262 332.391 72.578 336.501 71.771C348.367 69.4426 360.258 67.1307 371.165 63.2531C379.588 60.2572 387.361 56.7481 392.708 51.482C396.623 47.626 398.015 43.4026 396.355 38.9723C394.759 34.7174 390.194 31.5712 384.806 29.0838C377.033 25.4934 368.324 22.8989 359.428 20.6231C346.479 17.3137 333.074 14.9014 319.58 12.6904C306.37 10.5272 293.052 8.66096 279.692 6.92599C263.216 4.78699 246.586 3.22755 229.875 2.01034C216.702 1.05098 203.476 0.588295 190.232 0.293388C171.205 -0.131737 152.178 -0.0679245 133.15 0.311905C112.722 0.720047 92.2727 0.892456 71.9171 2.22083C56.2586 3.24297 40.806 4.9728 25.9442 8.35062C17.5147 10.2662 9.62478 12.7742 3.57916 17.2143C-0.329977 20.0852 -0.872849 23.1475 1.15457 26.5197C3.17872 29.8867 6.7444 32.6062 10.7569 35.0844C16.3541 38.5415 22.8311 41.2754 29.4659 43.8498C47.2707 50.7583 66.1987 56.1006 86.1709 59.9669C98.3744 62.3292 110.725 64.3396 123.142 66.1975C134.37 67.8785 145.631 69.4848 157.002 70.7046C173.097 72.4308 189.224 74.0608 205.45 75.2481C206.279 75.3089 207.1 75.4164 207.924 75.5029C207.458 75.7082 207.038 75.7077 206.617 75.7082C182.151 75.7381 157.712 75.2219 133.301 74.228C116.66 73.5502 100.032 72.7581 83.3939 72.0494C70.6076 71.5049 57.8188 70.9629 44.9902 71.3319C41.0078 71.4462 37.0278 71.5728 32.7223 71.7041C33.4027 72.1292 33.9204 72.1312 34.3835 72.1863C39.8171 72.8291 45.2441 73.4931 50.6915 74.0834C60.7228 75.1714 70.8062 76.0361 80.9294 76.6974C92.9897 77.4864 105.035 78.3707 117.133 78.9167C128.153 79.4144 139.16 80.0325 150.185 80.4813C161.257 80.9317 172.341 81.2724 183.424 81.6002C198.228 82.0372 213.037 82.1592 227.852 81.7474C242.457 81.3419 257.039 80.7639 271.586 79.8375C275.667 79.5781 279.706 79.0351 283.834 79.0896C292.143 79.1982 300.453 79.349 308.763 79.3959C315.551 79.435 322.347 79.3712 329.135 79.311C336.322 79.2471 343.533 79.2219 350.654 78.6223C364.385 77.4653 378.197 76.9018 391.968 76.0778C395.175 75.8863 398.43 75.8276 401.547 75.2486C403.802 74.8292 405.999 74.3176 408.368 74.2044C409.011 74.174 409.67 74.1045 409.955 73.6629C410.118 73.4076 409.808 73.2419 409.515 73.1441Z" fill="url(#paint0_linear_1_1514)"/>
<defs>
<linearGradient id="paint0_linear_1_1514" x1="21.5" y1="-2.13405e-07" x2="730.5" y2="154" gradientUnits="userSpaceOnUse">
<stop stop-color="#F33A56"/>
<stop offset="1" stop-color="#6E039F"/>
</linearGradient>
</defs>
</svg>
