<svg width="43" height="43" viewBox="0 0 43 43" fill="none" xmlns="http://www.w3.org/2000/svg">
<path opacity="0.1" fill-rule="evenodd" clip-rule="evenodd" d="M0.214844 21.2903C0.214844 9.55249 9.73022 0.0371094 21.468 0.0371094C33.2059 0.0371094 42.7212 9.55249 42.7212 21.2903C42.7212 33.0281 33.2059 42.5435 21.468 42.5435C9.73022 42.5435 0.214844 33.0281 0.214844 21.2903Z" fill="white"/>
<path fill-rule="evenodd" clip-rule="evenodd" d="M21.4689 9.95557C18.3905 9.95557 18.0041 9.96903 16.7951 10.024C15.5883 10.0793 14.7646 10.2704 14.0439 10.5507C13.2984 10.8402 12.666 11.2275 12.0359 11.8577C11.4054 12.4878 11.0181 13.1202 10.7277 13.8655C10.4467 14.5864 10.2554 15.4104 10.2011 16.6166C10.147 17.8257 10.1328 18.2123 10.1328 21.2907C10.1328 24.3692 10.1465 24.7543 10.2013 25.9634C10.2568 27.1701 10.4478 27.9938 10.7279 28.7145C11.0177 29.4601 11.4049 30.0925 12.0352 30.7225C12.665 31.353 13.2974 31.7413 14.0425 32.0308C14.7637 32.3111 15.5876 32.5021 16.7941 32.5574C18.0032 32.6124 18.3893 32.6259 21.4675 32.6259C24.5462 32.6259 24.9313 32.6124 26.1404 32.5574C27.3471 32.5021 28.1718 32.3111 28.893 32.0308C29.6383 31.7413 30.2697 31.353 30.8995 30.7225C31.53 30.0925 31.9173 29.4601 32.2078 28.7148C32.4864 27.9938 32.6777 27.1699 32.7344 25.9636C32.7887 24.7546 32.8029 24.3692 32.8029 21.2907C32.8029 18.2123 32.7887 17.8259 32.7344 16.6169C32.6777 15.4101 32.4864 14.5865 32.2078 13.8657C31.9173 13.1202 31.53 12.4878 30.8995 11.8577C30.269 11.2272 29.6385 10.8399 28.8923 10.5507C28.1696 10.2704 27.3455 10.0793 26.1388 10.024C24.9297 9.96903 24.5448 9.95557 21.4654 9.95557H21.4689ZM20.452 11.9982C20.7538 11.9978 21.0906 11.9982 21.4689 11.9982C24.4953 11.9982 24.8541 12.0091 26.0492 12.0634C27.1544 12.1139 27.7542 12.2986 28.1538 12.4538C28.6827 12.6592 29.0599 12.9048 29.4564 13.3015C29.8531 13.6983 30.0987 14.0761 30.3046 14.6051C30.4598 15.0042 30.6447 15.604 30.695 16.7092C30.7493 17.9041 30.7611 18.263 30.7611 21.2881C30.7611 24.3132 30.7493 24.6721 30.695 25.867C30.6444 26.9722 30.4598 27.572 30.3046 27.9711C30.0992 28.5001 29.8531 28.8767 29.4564 29.2732C29.0596 29.67 28.683 29.9156 28.1538 30.121C27.7547 30.2769 27.1544 30.4611 26.0492 30.5116C24.8543 30.5659 24.4953 30.5777 21.4689 30.5777C18.4421 30.5777 18.0834 30.5659 16.8885 30.5116C15.7833 30.4606 15.1835 30.2759 14.7837 30.1208C14.2547 29.9153 13.8769 29.6697 13.4802 29.273C13.0834 28.8763 12.8379 28.4994 12.6319 27.9702C12.4768 27.5711 12.2919 26.9713 12.2416 25.8661C12.1873 24.6712 12.1764 24.3122 12.1764 21.2853C12.1764 18.2583 12.1873 17.9012 12.2416 16.7063C12.2921 15.6012 12.4768 15.0013 12.6319 14.6018C12.8374 14.0728 13.0834 13.695 13.4802 13.2982C13.8769 12.9015 14.2547 12.6559 14.7837 12.45C15.1833 12.2941 15.7833 12.1099 16.8885 12.0592C17.9342 12.0119 18.3394 11.9978 20.452 11.9954V11.9982ZM27.5195 13.8803C26.7685 13.8803 26.1593 14.4889 26.1593 15.2401C26.1593 15.991 26.7685 16.6003 27.5195 16.6003C28.2704 16.6003 28.8797 15.991 28.8797 15.2401C28.8797 14.4891 28.2704 13.8803 27.5195 13.8803ZM21.4689 15.4696C18.2542 15.4696 15.6479 18.076 15.6479 21.2907C15.6479 24.5054 18.2542 27.1106 21.4689 27.1106C24.6836 27.1106 27.2891 24.5054 27.2891 21.2907C27.2891 18.076 24.6836 15.4696 21.4689 15.4696ZM21.4689 17.5123C23.5555 17.5123 25.2473 19.2038 25.2473 21.2907C25.2473 23.3773 23.5555 25.0691 21.4689 25.0691C19.382 25.0691 17.6905 23.3773 17.6905 21.2907C17.6905 19.2038 19.382 17.5123 21.4689 17.5123Z" fill="white"/>
</svg>
