<svg width="44" height="43" viewBox="0 0 44 43" fill="none" xmlns="http://www.w3.org/2000/svg">
<path opacity="0.1" fill-rule="evenodd" clip-rule="evenodd" d="M0.734009 21.2906C0.734009 9.55273 10.2494 0.0373535 21.9872 0.0373535C33.725 0.0373535 43.2404 9.55273 43.2404 21.2906C43.2404 33.0284 33.725 42.5437 21.9872 42.5437C10.2494 42.5437 0.734009 33.0284 0.734009 21.2906Z" fill="white"/>
<path fill-rule="evenodd" clip-rule="evenodd" d="M21.351 17.3125L21.3956 18.0479L20.6523 17.9579C17.9467 17.6127 15.583 16.442 13.576 14.4759L12.5949 13.5004L12.3421 14.2208C11.8069 15.8267 12.1489 17.5226 13.2638 18.6632C13.8585 19.2936 13.7247 19.3836 12.6989 19.0084C12.3421 18.8884 12.0299 18.7983 12.0002 18.8433C11.8961 18.9484 12.2529 20.3142 12.5354 20.8545C12.9219 21.6049 13.7098 22.3403 14.5721 22.7755L15.3005 23.1207L14.4383 23.1357C13.6058 23.1357 13.576 23.1507 13.6652 23.4659C13.9625 24.4415 15.137 25.477 16.4452 25.9273L17.3669 26.2425L16.5641 26.7227C15.3748 27.4131 13.9774 27.8033 12.58 27.8333C11.911 27.8484 11.361 27.9084 11.361 27.9534C11.361 28.1035 13.1746 28.944 14.2301 29.2741C17.3966 30.2497 21.1578 29.8295 23.9823 28.1635C25.9893 26.9779 27.9962 24.6216 28.9328 22.3403C29.4382 21.1246 29.9437 18.9034 29.9437 17.8378C29.9437 17.1474 29.9883 17.0574 30.8208 16.2319C31.3114 15.7516 31.7722 15.2263 31.8614 15.0763C32.0101 14.7911 31.9952 14.7911 31.237 15.0462C29.9734 15.4965 29.795 15.4365 30.4194 14.7611C30.8802 14.2808 31.4303 13.4103 31.4303 13.1552C31.4303 13.1102 31.2073 13.1852 30.9546 13.3203C30.687 13.4704 30.0923 13.6955 29.6464 13.8306L28.8436 14.0857L28.1151 13.5904C27.7138 13.3203 27.1488 13.0201 26.8515 12.9301C26.0933 12.7199 24.9338 12.75 24.2499 12.9901C22.3917 13.6655 21.2172 15.4064 21.351 17.3125Z" fill="white"/>
</svg>
